<?xml version="1.0" encoding="utf-8"?>
<!-- Generator: Adobe Illustrator 21.0.0, SVG Export Plug-In . SVG Version: 6.00 Build 0)  -->
<svg version="1.1" id="DensityDesign_Logo" xmlns="http://www.w3.org/2000/svg" xmlns:xlink="http://www.w3.org/1999/xlink" x="0px"
	 y="0px" width="293.6px" height="338.4px" viewBox="0 0 293.6 338.4" style="enable-background:new 0 0 293.6 338.4;"
	 xml:space="preserve">
<g>
	<rect x="246.4" y="35.4" width="47.2" height="7.7"/>
	<path d="M90.2,85.4V0h27.7v12.3h-14.5v23.3h9.6v11.7h-9.6v25.4h14.5v12.7H90.2z"/>
	<path d="M199.9,85.4l-14.5-43.2l-4.1-13.7v56.9h-8.7V0h8.3l13.2,43.8l3.8,13.9V0h8.7v85.4L199.9,85.4L199.9,85.4z"/>
	<path d="M96.7,213.1v-85.4h13.2v85.4H96.7z"/>
	<path d="M26.1,337.1l-1.4-4.5c-1.8,3.8-5.5,5.8-9.4,5.8c-9,0-14.7-6.5-14.7-16.8v-54.4c0-9.2,7.1-16.8,16.5-16.8
		c9.5,0,16,7.6,16,16.8V283H20.8v-16.3c0-2-1.2-3.5-3.5-3.5c-2.2,0-3.6,1.4-3.6,3.5v56c0,2.2,1.4,3.7,3.6,3.7c2.3,0,3.6-1.5,3.6-3.7
		v-17.4h-3.3V295h16.1v42.1L26.1,337.1L26.1,337.1z"/>
	<path d="M109,337.1l-9.6-38.6l-3-11.7v50.2H85.2v-85.4h12.6l8.5,38.3l2.6,11.9v-50.3h11.2v85.4L109,337.1L109,337.1z"/>
	<path d="M194.4,136.4v76.7h-9.1v-76.7h-11.4v-8.7h31.5v8.7H194.4L194.4,136.4z"/>
	<path d="M274.3,179.4v33.7H265v-33.7l-13.2-51.7h9.2l9.1,39.7l9.1-39.7h8.8L274.3,179.4z"/>
	<rect x="166.1" y="287.6" width="47.2" height="10"/>
	<rect x="184.7" y="269" width="10" height="47.2"/>
	<path d="M11.2,85.5H1.3V0h9.9c23.3,0.1,25,9.3,25,42.8C36.2,76.2,34.5,85.4,11.2,85.5z M13.9,72.9c8.8,0,9.4-2.2,9.3-30.2
		c0.1-27.9-0.5-30.1-9.3-30.1V72.9z"/>
	<path d="M22.3,165.8c-5.4-9.5-8.3-13-8.3-22.8c0-3,1.8-4.4,4-4.4c2.1,0,3.6,1.5,3.6,4.4v6.5l11.4-1.1v-4.1c0-11.3-6-17.8-15-17.8
		c-11.5,0-17,8.6-17,19.2c0,9.9,6.8,21.7,11.8,29.6c5,8.6,8.1,14.6,8.1,22.3c0,3.2-1.4,5.1-4.2,5.1c-2.9,0-4.4-2-4.4-5.1v-6.9
		l-11.5,1.1v4.8c0,11.4,6.3,17.8,16.5,17.8c8.3,0,16.4-5.5,16.4-18.8C33.6,185.6,27.9,175.4,22.3,165.8z"/>
</g>
</svg>
